# 3ds Max Wavefront OBJ Exporter v0.99 - (c)2007 guruware
# File Created: 28.09.2025 20:38:40

mtllib Prac7.mtl

#
# object Box001
#

v  -10.2357 0.0000 10.2357
v  -10.2357 0.0000 -10.1597
v  9.2566 0.0000 -10.1597
v  9.2566 0.0000 10.2357
v  -10.2357 18.2391 10.2357
v  9.2566 18.2391 10.2357
v  9.2566 18.2391 -10.1597
v  -10.2357 18.2391 -10.1597
# 8 vertices

vn -0.5774 -0.5774 0.5774
vn -0.5774 -0.5774 -0.5774
vn 0.5774 -0.5774 -0.5774
vn 0.5774 -0.5774 0.5774
vn -0.5774 0.5774 0.5774
vn 0.5774 0.5774 0.5774
vn 0.5774 0.5774 -0.5774
vn -0.5774 0.5774 -0.5774
# 8 vertex normals

vt 1.4880 -0.7416 0.0000
vt 1.4880 -0.5022 0.0000
vt 1.2527 -0.5022 0.0000
vt 1.2527 -0.7416 0.0000
vt 0.2572 1.5099 0.0000
vt 0.4883 1.5099 0.0000
vt 0.4883 1.7493 0.0000
vt 0.2572 1.7493 0.0000
vt 1.2556 1.0093 0.0000
vt 1.4937 1.0093 0.0000
vt 1.4937 1.2491 0.0000
vt 1.2556 1.2491 0.0000
vt -0.4892 -0.9934 0.0000
vt -0.2580 -0.9934 0.0000
vt -0.2580 -0.7581 0.0000
vt -0.4892 -0.7581 0.0000
vt 0.2535 -1.2522 0.0000
vt 0.4969 -1.2522 0.0000
vt 0.4969 -1.0087 0.0000
vt 0.2535 -1.0087 0.0000
vt -1.0009 0.9990 0.0000
vt -0.7556 0.9990 0.0000
vt -0.7556 1.2533 0.0000
vt -1.0009 1.2533 0.0000
# 24 texture coords

o Box001
g Box001
usemtl 01___Default
s 2
f 1/1/1 2/2/2 3/3/3 4/4/4 
s 4
f 5/5/5 6/6/6 7/7/7 8/8/8 
s 8
f 1/9/1 4/10/4 6/11/6 5/12/5 
s 16
f 4/13/4 3/14/3 7/15/7 6/16/6 
s 32
f 3/17/3 2/18/2 8/19/8 7/20/7 
s 64
f 2/21/2 1/22/1 5/23/5 8/24/8 
# 6 polygons

